<svg width="46" height="45" viewBox="0 0 46 45" fill="none" xmlns="http://www.w3.org/2000/svg">
<path d="M34.5 13.5H26.5V10.5C26.499 9.97 26.288 9.461 25.913 9.086C25.539 8.712 25.03 8.501 24.5 8.5H10.5C9.97 8.501 9.461 8.711 9.086 9.086C8.711 9.461 8.501 9.97 8.5 10.5V34.5C8.501 35.03 8.712 35.539 9.086 35.913C9.461 36.288 9.97 36.499 10.5 36.5H34.5C35.03 36.499 35.538 36.288 35.913 35.913C36.288 35.538 36.499 35.03 36.5 34.5V15.5C36.499 14.97 36.288 14.461 35.913 14.086C35.539 13.712 35.03 13.501 34.5 13.5ZM19.5 34.5H15.5V29.5H19.5V34.5ZM24.5 34.5H21.5V29.5C21.499 28.97 21.288 28.461 20.913 28.087C20.539 27.712 20.03 27.501 19.5 27.5H15.5C14.97 27.501 14.461 27.712 14.086 28.087C13.712 28.461 13.501 28.97 13.5 29.5V34.5H10.5L10.499 10.5H24.5V34.5ZM34.5 34.5H26.5V15.5H34.5V34.5ZM31.5 22.5C31.5 22.698 31.441 22.891 31.331 23.056C31.222 23.22 31.065 23.348 30.883 23.424C30.7 23.5 30.499 23.519 30.305 23.481C30.111 23.442 29.933 23.347 29.793 23.207C29.653 23.067 29.558 22.889 29.519 22.695C29.481 22.501 29.5 22.3 29.576 22.117C29.652 21.935 29.78 21.778 29.944 21.669C30.109 21.559 30.302 21.5 30.5 21.5C30.765 21.5 31.02 21.605 31.207 21.793C31.395 21.98 31.5 22.235 31.5 22.5ZM29.5 18.5C29.5 18.302 29.559 18.109 29.669 17.944C29.778 17.78 29.935 17.652 30.117 17.576C30.3 17.5 30.501 17.481 30.695 17.519C30.889 17.558 31.067 17.653 31.207 17.793C31.347 17.933 31.442 18.111 31.481 18.305C31.519 18.499 31.5 18.7 31.424 18.883C31.348 19.065 31.22 19.222 31.056 19.331C30.891 19.441 30.698 19.5 30.5 19.5C30.235 19.5 29.98 19.395 29.793 19.207C29.605 19.02 29.5 18.765 29.5 18.5ZM21.5 22.5C21.5 22.698 21.441 22.891 21.331 23.056C21.222 23.22 21.065 23.348 20.883 23.424C20.7 23.5 20.499 23.519 20.305 23.481C20.111 23.442 19.933 23.347 19.793 23.207C19.653 23.067 19.558 22.889 19.519 22.695C19.481 22.501 19.5 22.3 19.576 22.117C19.652 21.935 19.78 21.778 19.944 21.669C20.109 21.559 20.302 21.5 20.5 21.5C20.765 21.5 21.02 21.605 21.207 21.793C21.395 21.98 21.5 22.235 21.5 22.5ZM21.5 18.5C21.5 18.698 21.441 18.891 21.331 19.056C21.222 19.22 21.065 19.348 20.883 19.424C20.7 19.5 20.499 19.519 20.305 19.481C20.111 19.442 19.933 19.347 19.793 19.207C19.653 19.067 19.558 18.889 19.519 18.695C19.481 18.501 19.5 18.3 19.576 18.117C19.652 17.935 19.78 17.778 19.944 17.669C20.109 17.559 20.302 17.5 20.5 17.5C20.765 17.5 21.02 17.605 21.207 17.793C21.395 17.98 21.5 18.235 21.5 18.5ZM21.5 14.5C21.5 14.698 21.441 14.891 21.331 15.056C21.222 15.22 21.065 15.348 20.883 15.424C20.7 15.5 20.499 15.519 20.305 15.481C20.111 15.442 19.933 15.347 19.793 15.207C19.653 15.067 19.558 14.889 19.519 14.695C19.481 14.501 19.5 14.3 19.576 14.117C19.652 13.935 19.78 13.778 19.944 13.669C20.109 13.559 20.302 13.5 20.5 13.5C20.765 13.5 21.02 13.605 21.207 13.793C21.395 13.98 21.5 14.235 21.5 14.5ZM15.5 22.5C15.5 22.698 15.441 22.891 15.331 23.056C15.222 23.22 15.065 23.348 14.883 23.424C14.7 23.5 14.499 23.519 14.305 23.481C14.111 23.442 13.933 23.347 13.793 23.207C13.653 23.067 13.558 22.889 13.519 22.695C13.481 22.501 13.5 22.3 13.576 22.117C13.652 21.935 13.78 21.778 13.944 21.669C14.109 21.559 14.302 21.5 14.5 21.5C14.765 21.5 15.02 21.605 15.207 21.793C15.395 21.98 15.5 22.235 15.5 22.5ZM15.5 18.5C15.5 18.698 15.441 18.891 15.331 19.056C15.222 19.22 15.065 19.348 14.883 19.424C14.7 19.5 14.499 19.519 14.305 19.481C14.111 19.442 13.933 19.347 13.793 19.207C13.653 19.067 13.558 18.889 13.519 18.695C13.481 18.501 13.5 18.3 13.576 18.117C13.652 17.935 13.78 17.778 13.944 17.669C14.109 17.559 14.302 17.5 14.5 17.5C14.765 17.5 15.02 17.605 15.207 17.793C15.395 17.98 15.5 18.235 15.5 18.5ZM15.5 14.5C15.5 14.698 15.441 14.891 15.331 15.056C15.222 15.22 15.065 15.348 14.883 15.424C14.7 15.5 14.499 15.519 14.305 15.481C14.111 15.442 13.933 15.347 13.793 15.207C13.653 15.067 13.558 14.889 13.519 14.695C13.481 14.501 13.5 14.3 13.576 14.117C13.652 13.935 13.78 13.778 13.944 13.669C14.109 13.559 14.302 13.5 14.5 13.5C14.765 13.5 15.02 13.605 15.207 13.793C15.395 13.98 15.5 14.235 15.5 14.5Z" fill="white"/>
</svg>
