<svg width="46" height="45" viewBox="0 0 46 45" fill="none" xmlns="http://www.w3.org/2000/svg">
<path d="M15.375 8.5C17.789 8.5 19.76 10.401 19.87 12.788L19.875 13V17.698L25.28 13.696C25.608 13.453 26.047 13.437 26.389 13.642L26.5 13.719L31.875 18.02V14.5H33.875V19.62L36.5 21.719L35.25 23.281L33.875 22.18L33.874 26.5H35.875C36.388 26.5 36.811 26.886 36.868 27.383L36.875 27.5V35.5C36.875 36.013 36.489 36.436 35.992 36.493L35.875 36.5H8.875V34.5H16.42L18.17 32.5H8.875V30.5H19.875V30.552L21.67 28.5H8.875V26.5H10.875V13C10.875 10.515 12.89 8.5 15.375 8.5ZM27.67 28.5H24.328L19.078 34.5H22.42L27.67 28.5ZM34.875 30.16L31.078 34.5H34.875V30.16ZM33.67 28.5H30.328L25.078 34.5H28.42L33.67 28.5ZM31.875 20.58L25.851 15.761L19.875 20.187V26.5H22.874L22.875 22.5C22.875 21.987 23.261 21.564 23.758 21.507L23.875 21.5H27.875C28.388 21.5 28.811 21.886 28.868 22.383L28.875 22.5L28.874 26.5H31.874L31.875 20.58ZM15.375 10.5C14.05 10.5 12.965 11.532 12.88 12.836L12.875 13V26.5H17.875V13C17.875 11.619 16.756 10.5 15.375 10.5ZM26.875 23.5H24.875V26.5H26.875V23.5Z" fill="white"/>
</svg>
