<svg width="46" height="45" viewBox="0 0 46 45" fill="none" xmlns="http://www.w3.org/2000/svg">
<path d="M34.75 8.5C35.804 8.5 36.668 9.316 36.745 10.351L36.75 10.5V34.5C36.75 35.554 35.934 36.418 34.899 36.494L34.75 36.5H10.75C9.696 36.5 8.832 35.684 8.755 34.649L8.75 34.5V10.5C8.75 9.446 9.566 8.582 10.601 8.505L10.75 8.5H34.75ZM22.75 13.415L19.664 16.5H10.75V34.5H18.75V29.5C18.75 28.446 19.566 27.582 20.601 27.505L20.75 27.5H24.75C25.804 27.5 26.668 28.316 26.745 29.351L26.75 29.5V34.5H34.75V16.5H25.836L22.75 13.415ZM24.75 29.5H20.75V34.5H24.75V29.5ZM30.75 27.5C31.302 27.5 31.75 27.948 31.75 28.5C31.75 29.052 31.302 29.5 30.75 29.5C30.198 29.5 29.75 29.052 29.75 28.5C29.75 27.948 30.198 27.5 30.75 27.5ZM14.75 27.5C15.302 27.5 15.75 27.948 15.75 28.5C15.75 29.052 15.302 29.5 14.75 29.5C14.198 29.5 13.75 29.052 13.75 28.5C13.75 27.948 14.198 27.5 14.75 27.5ZM30.75 23.5C31.302 23.5 31.75 23.948 31.75 24.5C31.75 25.052 31.302 25.5 30.75 25.5C30.198 25.5 29.75 25.052 29.75 24.5C29.75 23.948 30.198 23.5 30.75 23.5ZM14.75 23.5C15.302 23.5 15.75 23.948 15.75 24.5C15.75 25.052 15.302 25.5 14.75 25.5C14.198 25.5 13.75 25.052 13.75 24.5C13.75 23.948 14.198 23.5 14.75 23.5ZM30.75 19.5C31.302 19.5 31.75 19.948 31.75 20.5C31.75 21.052 31.302 21.5 30.75 21.5C30.198 21.5 29.75 21.052 29.75 20.5C29.75 19.948 30.198 19.5 30.75 19.5ZM22.75 19.5C23.302 19.5 23.75 19.948 23.75 20.5C23.75 21.052 23.302 21.5 22.75 21.5C22.198 21.5 21.75 21.052 21.75 20.5C21.75 19.948 22.198 19.5 22.75 19.5ZM14.75 19.5C15.302 19.5 15.75 19.948 15.75 20.5C15.75 21.052 15.302 21.5 14.75 21.5C14.198 21.5 13.75 21.052 13.75 20.5C13.75 19.948 14.198 19.5 14.75 19.5ZM34.75 14.5V10.5H10.75V14.5H18.834L21.336 12C22.076 11.26 23.251 11.221 24.037 11.883L24.164 12L26.665 14.5H34.75Z" fill="white"/>
</svg>
