<svg width="45" height="45" viewBox="0 0 45 45" fill="none" xmlns="http://www.w3.org/2000/svg">
<path d="M24.1549 8.78099L24.3299 8.94499L37.4019 21.787L35.9999 23.213L34.1999 21.445L34.2009 35C34.2009 36.054 33.3849 36.918 32.3499 36.994L32.2009 37H12.2009C11.1469 37 10.2829 36.184 10.2059 35.149L10.2009 35L10.1999 21.446L8.40194 23.213L6.99994 21.787L20.0579 8.95799C21.1709 7.82199 22.9659 7.75899 24.1549 8.78099ZM21.5689 10.285L21.4729 10.372L12.1999 19.481L12.2009 35L17.1999 34.999L17.2009 25C17.2009 23.946 18.0169 23.082 19.0519 23.005L19.2009 23H25.2009C26.2549 23 27.1189 23.816 27.1959 24.851L27.2009 25L27.1999 34.999L32.2009 35L32.1999 19.48L22.9009 10.344C22.5369 9.98699 21.9689 9.96499 21.5689 10.285ZM25.2009 25H19.2009L19.1999 34.999H25.1999L25.2009 25Z" fill="white"/>
</svg>
