<svg width="46" height="45" viewBox="0 0 46 45" fill="none" xmlns="http://www.w3.org/2000/svg">
<path d="M28.5061 14.228C28.5061 14.297 28.5051 14.366 28.5041 14.435L28.5031 14.515V14.527V14.539L28.5081 14.802V14.811V14.82L28.5361 15.296L28.5381 15.348L28.5531 15.399C28.7561 16.143 29.1931 16.789 29.9021 17.251C30.5571 17.677 31.4171 17.928 32.4841 17.986V18.987C31.1351 18.917 30.0721 18.565 29.2811 18.031L28.5011 17.504V18.445V21.5V22H29.0011H30.0011C30.1601 22 30.3081 22.076 30.4021 22.201L30.4491 22.276L37.4411 35.263C37.6091 35.574 37.4091 35.949 37.0731 35.995L36.9881 36H9.00114C8.64814 36 8.41214 35.646 8.53115 35.329L8.56814 35.251L15.5611 22.263C15.6431 22.111 15.7771 22.027 15.9241 22.006L15.9621 22H27.0011H27.5011V21.5L27.5031 18.446V17.505L26.7231 18.031C25.9321 18.565 24.8701 18.917 23.5211 18.987V17.986C24.5451 17.93 25.3771 17.697 26.0211 17.302C26.7771 16.839 27.2421 16.173 27.4521 15.399L27.4651 15.353L27.4691 15.306L27.4841 15.122V15.114V15.106L27.4971 14.814V14.8L27.5011 14.556V14.548L27.5031 13.458V12.366L26.6761 13.079C25.8941 13.753 24.8511 14.195 23.5211 14.284V13.281C24.5451 13.199 25.3871 12.863 26.0381 12.297C26.7871 11.645 27.2341 10.732 27.4451 9.688L27.4471 9.679L27.4491 9.67L27.4691 9.541L27.4711 9.533V9.526C27.4881 9.399 27.4991 9.267 27.5031 9.143V9.122V9.102L27.4991 9.023V9H28.5011V9.216H28.5061C28.5111 9.321 28.5211 9.426 28.5341 9.526V9.533L28.5361 9.541L28.5571 9.67L28.5591 9.679L28.5601 9.688C28.7631 10.696 29.1861 11.582 29.8911 12.229C30.5501 12.834 31.4181 13.196 32.4841 13.281V14.284C31.1531 14.195 30.1091 13.751 29.3271 13.077L28.5011 12.363V13.456V13.784V14.228H28.5061ZM15.5011 26.465L14.5601 26.228L10.2361 34.263L9.83814 35H10.6761H15.0011H15.5011V34.5V26.465ZM35.3271 34.999H36.1631L35.7661 34.262L29.8441 23.262L29.7021 22.999H29.4041L17.6761 23H16.8381L17.2341 23.737L23.1571 34.737L23.2991 35H23.5981L35.3271 34.999ZM17.4411 26.231L16.5011 26.468V34.5V35H17.0011H21.3271H22.1631L21.7661 34.263L17.4411 26.231ZM15.0011 11C16.9341 11 18.5011 12.567 18.5011 14.5C18.5011 16.433 16.9341 18 15.0011 18C13.0681 18 11.5011 16.433 11.5011 14.5C11.5011 12.567 13.0681 11 15.0011 11ZM15.0011 12C13.6201 12 12.5011 13.119 12.5011 14.5C12.5011 15.881 13.6201 17 15.0011 17C16.3821 17 17.5011 15.881 17.5011 14.5C17.5011 13.119 16.3821 12 15.0011 12Z" fill="white"/>
<path d="M28.5061 14.228C28.5061 14.297 28.5051 14.366 28.5041 14.435L28.5031 14.515V14.527V14.539L28.5081 14.802V14.811V14.82L28.5361 15.296L28.5381 15.348L28.5531 15.399C28.7561 16.143 29.1931 16.789 29.9021 17.251C30.5571 17.677 31.4171 17.928 32.4841 17.986V18.987C31.1351 18.917 30.0721 18.565 29.2811 18.031L28.5011 17.504V18.445V21.5V22H29.0011H30.0011C30.1601 22 30.3081 22.076 30.4021 22.201L30.4491 22.276L37.4411 35.263C37.6091 35.574 37.4091 35.949 37.0731 35.995L36.9881 36H9.00114C8.64814 36 8.41214 35.646 8.53115 35.329L8.56814 35.251L15.5611 22.263C15.6431 22.111 15.7771 22.027 15.9241 22.006L15.9621 22H27.0011H27.5011V21.5L27.5031 18.446V17.505L26.7231 18.031C25.9321 18.565 24.8701 18.917 23.5211 18.987V17.986C24.5451 17.93 25.3771 17.697 26.0211 17.302C26.7771 16.839 27.2421 16.173 27.4521 15.399L27.4651 15.353L27.4691 15.306L27.4841 15.122V15.114V15.106L27.4971 14.814V14.8L27.5011 14.556V14.548L27.5031 13.458V12.366L26.6761 13.079C25.8941 13.753 24.8511 14.195 23.5211 14.284V13.281C24.5451 13.199 25.3871 12.863 26.0381 12.297C26.7871 11.645 27.2341 10.732 27.4451 9.688L27.4471 9.679L27.4491 9.67L27.4691 9.541L27.4711 9.533V9.526C27.4881 9.399 27.4991 9.267 27.5031 9.143V9.122V9.102L27.4991 9.023V9H28.5011V9.216H28.5061C28.5111 9.321 28.5211 9.426 28.5341 9.526V9.533L28.5361 9.541L28.5571 9.67L28.5591 9.679L28.5601 9.688C28.7631 10.696 29.1861 11.582 29.8911 12.229C30.5501 12.834 31.4181 13.196 32.4841 13.281V14.284C31.1531 14.195 30.1091 13.751 29.3271 13.077L28.5011 12.363V13.456V13.784V14.228H28.5061ZM15.5011 26.465L14.5601 26.228L10.2361 34.263L9.83814 35H10.6761H15.0011H15.5011V34.5V26.465ZM35.3271 34.999H36.1631L35.7661 34.262L29.8441 23.262L29.7021 22.999H29.4041L17.6761 23H16.8381L17.2341 23.737L23.1571 34.737L23.2991 35H23.5981L35.3271 34.999ZM17.4411 26.231L16.5011 26.468V34.5V35H17.0011H21.3271H22.1631L21.7661 34.263L17.4411 26.231ZM15.0011 11C16.9341 11 18.5011 12.567 18.5011 14.5C18.5011 16.433 16.9341 18 15.0011 18C13.0681 18 11.5011 16.433 11.5011 14.5C11.5011 12.567 13.0681 11 15.0011 11ZM15.0011 12C13.6201 12 12.5011 13.119 12.5011 14.5C12.5011 15.881 13.6201 17 15.0011 17C16.3821 17 17.5011 15.881 17.5011 14.5C17.5011 13.119 16.3821 12 15.0011 12Z" stroke="white"/>
</svg>
