<svg width="46" height="45" viewBox="0 0 46 45" fill="none" xmlns="http://www.w3.org/2000/svg">
<path d="M37.4375 7.60602L38.3315 9.39402L35.8845 10.618V35.5C35.8845 36.554 35.0685 37.418 34.0335 37.494L33.8845 37.5H11.8845C10.8305 37.5 9.9665 36.684 9.8905 35.649L9.8845 35.5V23.618L8.3315 24.394L7.4375 22.606L9.8845 21.383V13.5H11.8845V20.383L37.4375 7.60602ZM33.8845 11.618L11.8845 22.618V35.5H17.8845V25.5C17.8845 24.446 18.7005 23.582 19.7355 23.505L19.8845 23.5H25.8845C26.9385 23.5 27.8025 24.316 27.8795 25.351L27.8845 25.5V35.5H33.8845V11.618ZM25.8845 25.5H19.8845V35.5H25.8845V25.5ZM30.8845 17.5C31.4365 17.5 31.8845 17.948 31.8845 18.5C31.8845 19.052 31.4365 19.5 30.8845 19.5C30.3325 19.5 29.8845 19.052 29.8845 18.5C29.8845 17.948 30.3325 17.5 30.8845 17.5Z" fill="white"/>
</svg>
