<svg width="46" height="45" viewBox="0 0 46 45" fill="none" xmlns="http://www.w3.org/2000/svg">
<path d="M38.25 32H18.124C17.902 32.858 17.4 33.618 16.699 34.161C15.998 34.704 15.137 34.998 14.25 34.998C13.363 34.998 12.502 34.704 11.801 34.161C11.1 33.618 10.598 32.858 10.376 32H8.25C7.745 32 7.259 31.81 6.889 31.466C6.519 31.123 6.293 30.653 6.255 30.15L6.25 30V15.21C6.25 12.41 8.438 10.12 11.186 10.005L11.404 10H29.096C31.873 10 34.131 12.218 34.246 14.99L34.25 15.21V30H36.25V28H38.25V32ZM14.25 29C13.72 29 13.211 29.211 12.836 29.586C12.461 29.961 12.25 30.47 12.25 31C12.25 31.53 12.461 32.039 12.836 32.414C13.211 32.789 13.72 33 14.25 33C14.78 33 15.289 32.789 15.664 32.414C16.039 32.039 16.25 31.53 16.25 31C16.25 30.47 16.039 29.961 15.664 29.586C15.289 29.211 14.78 29 14.25 29ZM29.096 12H11.404C9.725 12 8.348 13.337 8.255 15.028L8.25 15.211V30H10.376C10.598 29.142 11.1 28.382 11.801 27.839C12.502 27.296 13.363 27.002 14.25 27.002C15.137 27.002 15.998 27.296 16.699 27.839C17.4 28.382 17.902 29.142 18.124 30H20.25V17.167C20.25 16.022 21.138 15.085 22.262 15.005L22.417 15H27.083C28.228 15 29.165 15.888 29.245 17.012L29.25 17.167V30H32.25V15.21C32.25 13.496 30.93 12.1 29.275 12.005L29.096 12ZM27.083 17H22.417C22.382 17 22.348 17.011 22.319 17.031C22.29 17.052 22.269 17.081 22.258 17.114L22.25 17.167V30H27.25V17.167C27.25 17.132 27.239 17.098 27.219 17.069C27.198 17.041 27.169 17.019 27.136 17.008L27.083 17ZM16.25 15C16.755 15 17.241 15.19 17.611 15.533C17.98 15.877 18.207 16.347 18.245 16.85L18.25 17V21C18.25 21.505 18.06 21.991 17.717 22.361C17.373 22.73 16.903 22.957 16.4 22.995L16.25 23H12.25C11.745 23 11.259 22.81 10.889 22.467C10.519 22.123 10.293 21.653 10.255 21.15L10.25 21V17C10.25 16.495 10.44 16.009 10.783 15.639C11.127 15.269 11.597 15.043 12.1 15.005L12.25 15H16.25ZM16.25 17H12.25V21H16.25V17Z" fill="#3C3C3C"/>
</svg>
