<svg width="46" height="45" viewBox="0 0 46 45" fill="none" xmlns="http://www.w3.org/2000/svg">
<path d="M23.375 15.5H24.375C24.888 15.5 25.311 15.886 25.368 16.383L25.375 16.5V18.5H26.375V16.5C26.375 16.027 26.704 15.63 27.146 15.526L27.258 15.507L27.375 15.5H31.375C31.888 15.5 32.311 15.886 32.368 16.383L32.375 16.5V21.5C32.375 21.658 32.338 21.813 32.267 21.953L32.207 22.055L30.375 24.802V36.5C30.375 36.973 30.046 37.37 29.604 37.474L29.492 37.493L29.375 37.5H15.375C14.862 37.5 14.439 37.114 14.382 36.617L14.375 36.5V24.804L12.543 22.055C12.477 21.956 12.43 21.847 12.403 21.733L12.382 21.618L12.375 21.5V16.5C12.375 15.987 12.761 15.564 13.258 15.507L13.375 15.5H17.375C17.888 15.5 18.311 15.886 18.368 16.383L18.375 16.5V18.5H19.375V16.5C19.375 16.027 19.704 15.63 20.146 15.526L20.258 15.507L20.375 15.5H21.375H23.375ZM16.375 17.5H14.375V21.197L16.207 23.945C16.273 24.044 16.32 24.153 16.347 24.267L16.368 24.382L16.375 24.5V35.5H18.375V31.5C18.375 29.358 20.059 27.609 22.175 27.505L22.375 27.5C24.517 27.5 26.266 29.184 26.37 31.3L26.375 31.5V35.5H28.375V27.5H26.375V25.5H28.375V24.5C28.375 24.382 28.396 24.265 28.437 24.155L28.483 24.047L28.543 23.945L30.375 21.196V17.5H28.375V19.5C28.375 19.973 28.046 20.37 27.604 20.474L27.492 20.493L27.375 20.5H24.375C23.862 20.5 23.439 20.114 23.382 19.617L23.375 19.5V17.5H21.375V19.5C21.375 19.973 21.046 20.37 20.604 20.474L20.492 20.493L20.375 20.5H17.375C16.862 20.5 16.439 20.114 16.382 19.617L16.375 19.5V17.5ZM22.375 29.5C21.321 29.5 20.457 30.316 20.38 31.351L20.375 31.5V35.5H24.375V31.5C24.375 30.498 23.639 29.669 22.678 29.523L22.524 29.505L22.375 29.5ZM26.375 24.5H23.375V22.5H26.375V24.5Z" fill="#3C3C3C"/>
<path d="M22.625 16.25V8.56201" stroke="#3C3C3C" stroke-width="2" stroke-linecap="round" stroke-linejoin="round"/>
<path d="M27.76 12.504H22.75V8.49799H27.76V12.504Z" stroke="#3C3C3C" stroke-width="2" stroke-linecap="round" stroke-linejoin="round"/>
</svg>
