<svg width="201" height="29" viewBox="0 0 201 29" fill="none" xmlns="http://www.w3.org/2000/svg">
<path d="M3 24.2612H29.9181V28.75H3V24.2612Z" fill="#00AD45"/>
<path d="M3 28.75V16.6304H7.48635V28.75H3Z" fill="#00AD45"/>
<path d="M25.4317 28.75V16.6304H29.9181V28.75H25.4317Z" fill="#00AD45"/>
<path d="M3.07777 16.5645L15.8854 3.75L19.0577 6.92403L6.25009 19.7385L3.07777 16.5645Z" fill="#00AD45"/>
<path d="M22.3607 9.03697L30 16.6804L26.8277 19.8544L19.1883 12.211L22.3607 9.03697Z" fill="#00AD45"/>
<path d="M11.9727 19.42L19.5589 11.8297L22.7313 15.0038L15.145 22.5941L11.9727 19.42Z" fill="#00AD45"/>
<path d="M49.688 18.11C50.664 18.318 51.448 18.806 52.04 19.574C52.632 20.326 52.928 21.19 52.928 22.166C52.928 23.574 52.432 24.694 51.44 25.526C50.464 26.342 49.096 26.75 47.336 26.75H39.488V9.902H47.072C48.784 9.902 50.12 10.294 51.08 11.078C52.056 11.862 52.544 12.926 52.544 14.27C52.544 15.262 52.28 16.086 51.752 16.742C51.24 17.398 50.552 17.854 49.688 18.11ZM43.592 16.718H46.28C46.952 16.718 47.464 16.574 47.816 16.286C48.184 15.982 48.368 15.542 48.368 14.966C48.368 14.39 48.184 13.95 47.816 13.646C47.464 13.342 46.952 13.19 46.28 13.19H43.592V16.718ZM46.616 23.438C47.304 23.438 47.832 23.286 48.2 22.982C48.584 22.662 48.776 22.206 48.776 21.614C48.776 21.022 48.576 20.558 48.176 20.222C47.792 19.886 47.256 19.718 46.568 19.718H43.592V23.438H46.616ZM67.9323 19.838C67.9323 20.222 67.9083 20.622 67.8603 21.038H58.5723C58.6363 21.87 58.9003 22.51 59.3643 22.958C59.8443 23.39 60.4283 23.606 61.1163 23.606C62.1403 23.606 62.8523 23.174 63.2523 22.31H67.6203C67.3963 23.19 66.9883 23.982 66.3963 24.686C65.8203 25.39 65.0923 25.942 64.2123 26.342C63.3323 26.742 62.3483 26.942 61.2603 26.942C59.9483 26.942 58.7803 26.662 57.7563 26.102C56.7323 25.542 55.9323 24.742 55.3563 23.702C54.7803 22.662 54.4923 21.446 54.4923 20.054C54.4923 18.662 54.7723 17.446 55.3323 16.406C55.9083 15.366 56.7083 14.566 57.7323 14.006C58.7563 13.446 59.9323 13.166 61.2603 13.166C62.5563 13.166 63.7083 13.438 64.7163 13.982C65.7243 14.526 66.5083 15.302 67.0683 16.31C67.6443 17.318 67.9323 18.494 67.9323 19.838ZM63.7323 18.758C63.7323 18.054 63.4923 17.494 63.0123 17.078C62.5323 16.662 61.9323 16.454 61.2123 16.454C60.5243 16.454 59.9403 16.654 59.4603 17.054C58.9963 17.454 58.7083 18.022 58.5963 18.758H63.7323ZM74.2014 8.99V26.75H70.0974V8.99H74.2014ZM81.2795 8.99V26.75H77.1755V8.99H81.2795ZM83.4376 20.03C83.4376 18.654 83.6936 17.446 84.2056 16.406C84.7336 15.366 85.4456 14.566 86.3416 14.006C87.2376 13.446 88.2376 13.166 89.3416 13.166C90.2856 13.166 91.1096 13.358 91.8136 13.742C92.5336 14.126 93.0856 14.63 93.4696 15.254V13.358H97.5736V26.75H93.4696V24.854C93.0696 25.478 92.5096 25.982 91.7896 26.366C91.0856 26.75 90.2616 26.942 89.3176 26.942C88.2296 26.942 87.2376 26.662 86.3416 26.102C85.4456 25.526 84.7336 24.718 84.2056 23.678C83.6936 22.622 83.4376 21.406 83.4376 20.03ZM93.4696 20.054C93.4696 19.03 93.1816 18.222 92.6056 17.63C92.0456 17.038 91.3576 16.742 90.5416 16.742C89.7256 16.742 89.0296 17.038 88.4536 17.63C87.8936 18.206 87.6136 19.006 87.6136 20.03C87.6136 21.054 87.8936 21.87 88.4536 22.478C89.0296 23.07 89.7256 23.366 90.5416 23.366C91.3576 23.366 92.0456 23.07 92.6056 22.478C93.1816 21.886 93.4696 21.078 93.4696 20.054ZM109.485 10.022V26.75H107.301V10.022H109.485ZM129.023 13.358C130.047 13.358 130.959 13.574 131.759 14.006C132.559 14.422 133.191 15.054 133.655 15.902C134.119 16.75 134.351 17.782 134.351 18.998V26.75H132.191V19.31C132.191 17.998 131.863 16.998 131.207 16.31C130.567 15.606 129.695 15.254 128.591 15.254C127.455 15.254 126.551 15.622 125.879 16.358C125.207 17.078 124.871 18.126 124.871 19.502V26.75H122.711V19.31C122.711 17.998 122.383 16.998 121.727 16.31C121.087 15.606 120.215 15.254 119.111 15.254C117.975 15.254 117.071 15.622 116.399 16.358C115.727 17.078 115.391 18.126 115.391 19.502V26.75H113.207V13.598H115.391V15.494C115.823 14.806 116.399 14.278 117.119 13.91C117.855 13.542 118.663 13.358 119.543 13.358C120.647 13.358 121.623 13.606 122.471 14.102C123.319 14.598 123.951 15.326 124.367 16.286C124.735 15.358 125.343 14.638 126.191 14.126C127.039 13.614 127.983 13.358 129.023 13.358ZM143.67 26.966C142.438 26.966 141.318 26.686 140.31 26.126C139.318 25.566 138.534 24.774 137.958 23.75C137.398 22.71 137.118 21.51 137.118 20.15C137.118 18.806 137.406 17.622 137.982 16.598C138.574 15.558 139.374 14.766 140.382 14.222C141.39 13.662 142.518 13.382 143.766 13.382C145.014 13.382 146.142 13.662 147.15 14.222C148.158 14.766 148.95 15.55 149.526 16.574C150.118 17.598 150.414 18.79 150.414 20.15C150.414 21.51 150.11 22.71 149.502 23.75C148.91 24.774 148.102 25.566 147.078 26.126C146.054 26.686 144.918 26.966 143.67 26.966ZM143.67 25.046C144.454 25.046 145.19 24.862 145.878 24.494C146.566 24.126 147.118 23.574 147.534 22.838C147.966 22.102 148.182 21.206 148.182 20.15C148.182 19.094 147.974 18.198 147.558 17.462C147.142 16.726 146.598 16.182 145.926 15.83C145.254 15.462 144.526 15.278 143.742 15.278C142.942 15.278 142.206 15.462 141.534 15.83C140.878 16.182 140.35 16.726 139.95 17.462C139.55 18.198 139.35 19.094 139.35 20.15C139.35 21.222 139.542 22.126 139.926 22.862C140.326 23.598 140.854 24.15 141.51 24.518C142.166 24.87 142.886 25.046 143.67 25.046ZM146.118 9.71L141.006 12.446V10.814L146.118 7.814V9.71ZM158.182 24.734L162.262 13.598H164.59L159.43 26.75H156.886L151.726 13.598H154.078L158.182 24.734ZM178.739 19.67C178.739 20.086 178.715 20.526 178.667 20.99H168.155C168.235 22.286 168.675 23.302 169.475 24.038C170.291 24.758 171.275 25.118 172.427 25.118C173.371 25.118 174.155 24.902 174.779 24.47C175.419 24.022 175.867 23.43 176.123 22.694H178.475C178.123 23.958 177.419 24.99 176.363 25.79C175.307 26.574 173.995 26.966 172.427 26.966C171.179 26.966 170.059 26.686 169.067 26.126C168.091 25.566 167.323 24.774 166.763 23.75C166.203 22.71 165.923 21.51 165.923 20.15C165.923 18.79 166.195 17.598 166.739 16.574C167.283 15.55 168.043 14.766 169.019 14.222C170.011 13.662 171.147 13.382 172.427 13.382C173.675 13.382 174.779 13.654 175.739 14.198C176.699 14.742 177.435 15.494 177.947 16.454C178.475 17.398 178.739 18.47 178.739 19.67ZM176.483 19.214C176.483 18.382 176.299 17.67 175.931 17.078C175.563 16.47 175.059 16.014 174.419 15.71C173.795 15.39 173.099 15.23 172.331 15.23C171.227 15.23 170.283 15.582 169.499 16.286C168.731 16.99 168.291 17.966 168.179 19.214H176.483ZM182.749 11.462C182.333 11.462 181.981 11.318 181.693 11.03C181.405 10.742 181.261 10.39 181.261 9.974C181.261 9.558 181.405 9.206 181.693 8.918C181.981 8.63 182.333 8.486 182.749 8.486C183.149 8.486 183.485 8.63 183.757 8.918C184.045 9.206 184.189 9.558 184.189 9.974C184.189 10.39 184.045 10.742 183.757 11.03C183.485 11.318 183.149 11.462 182.749 11.462ZM183.805 13.598V26.75H181.621V13.598H183.805ZM192.184 26.966C191.176 26.966 190.272 26.798 189.472 26.462C188.672 26.11 188.04 25.63 187.576 25.022C187.112 24.398 186.856 23.686 186.808 22.886H189.064C189.128 23.542 189.432 24.078 189.976 24.494C190.536 24.91 191.264 25.118 192.16 25.118C192.992 25.118 193.648 24.934 194.128 24.566C194.608 24.198 194.848 23.734 194.848 23.174C194.848 22.598 194.592 22.174 194.08 21.902C193.568 21.614 192.776 21.334 191.704 21.062C190.728 20.806 189.928 20.55 189.304 20.294C188.696 20.022 188.168 19.63 187.72 19.118C187.288 18.59 187.072 17.902 187.072 17.054C187.072 16.382 187.272 15.766 187.672 15.206C188.072 14.646 188.64 14.206 189.376 13.886C190.112 13.55 190.952 13.382 191.896 13.382C193.352 13.382 194.528 13.75 195.424 14.486C196.32 15.222 196.8 16.23 196.864 17.51H194.68C194.632 16.822 194.352 16.27 193.84 15.854C193.344 15.438 192.672 15.23 191.824 15.23C191.04 15.23 190.416 15.398 189.952 15.734C189.488 16.07 189.256 16.51 189.256 17.054C189.256 17.486 189.392 17.846 189.664 18.134C189.952 18.406 190.304 18.63 190.72 18.806C191.152 18.966 191.744 19.15 192.496 19.358C193.44 19.614 194.208 19.87 194.8 20.126C195.392 20.366 195.896 20.734 196.312 21.23C196.744 21.726 196.968 22.374 196.984 23.174C196.984 23.894 196.784 24.542 196.384 25.118C195.984 25.694 195.416 26.15 194.68 26.486C193.96 26.806 193.128 26.966 192.184 26.966Z" fill="#091A2B"/>
</svg>
